<svg id="Capa_1" enable-background="new 0 0 512 512" height="512" viewBox="0 0 512 512" width="512" xmlns="http://www.w3.org/2000/svg"><g><path d="m460.568 308.826-82.306-29.269v24.121c0 20.726-9.819 41.733-26.94 57.633-4.846 4.501-10.098 8.419-15.644 11.764l.071.115c-14.203 8.703-30.553 13.302-47.284 13.302-.137 0-.273-.009-.41-.01-.137.001-.273.01-.41.01-8.964 0-17.815-1.333-26.289-3.897-2.751 19.421-11.655 37.354-25.771 51.471l-25.991 25.991h188.036v-69.435h29.998v69.435h84.372v-78.354c0-32.651-20.669-61.938-51.432-72.877z"/><path d="m260.079 349.698c8.652 4.371 18.193 6.722 27.976 6.786 15.833-.104 31.037-6.18 42.853-17.154 11.03-10.244 17.356-23.238 17.356-35.652v-34.789l-1.067-.379c-19.164 10.419-41.112 16.343-64.418 16.343-19.548 0-38.137-4.173-54.933-11.665v25.102c2.684 2.142 5.276 4.428 7.739 6.891 12.414 12.413 20.779 27.785 24.494 44.517z"/><path d="m110.796 266.215 13.957.498c1.508.054 3.013.081 4.518.081 22.219 0 43.999-5.841 63.126-16.65-25.789-23.195-42.641-56.135-44.698-92.964-25.031 25.042-38.663 59.695-37.4 95.08z"/><path d="m373.303 250.019c19.179 10.888 41.037 16.775 63.342 16.775 1.502 0 3.013-.027 4.518-.081l13.957-.498.498-13.956c1.263-35.393-12.376-70.055-37.419-95.098l-.316-.316c-1.97 36.897-18.792 69.915-44.58 93.174z"/><path d="m267.621 66.584h29.998c0 20.633 16.786 37.418 37.418 37.418h54.013c-1.226-57.556-48.424-104.002-106.27-104.002s-105.044 46.446-106.272 104.003h53.695c20.632 0 37.418-16.786 37.418-37.419z"/><path d="m282.78 255.853c58.615 0 106.301-47.686 106.301-106.301v-15.551h-54.042c-21.151 0-40.048-9.799-52.417-25.086-12.369 15.287-31.267 25.086-52.418 25.086h-53.724v15.551c-.001 58.615 47.685 106.301 106.3 106.301z"/><path d="m215.079 325.687c-11.736-11.737-27.34-18.199-43.937-18.199s-32.201 6.463-43.937 18.199l-10.566 10.565-10.565-10.565c-11.736-11.737-27.34-18.199-43.937-18.199s-32.201 6.463-43.937 18.199c-11.736 11.736-18.2 27.34-18.2 43.937s6.464 32.201 18.2 43.936l98.439 98.44 98.44-98.44c11.736-11.736 18.2-27.339 18.2-43.936s-6.464-32.201-18.2-43.937z"/></g></svg>